<svg viewBox="0 0 503 91" fill="none" xmlns="http://www.w3.org/2000/svg">
<path d="M4 11.996V0H22.2876V11.996H4ZM56.7657 0H74.9695V11.996H56.7657V0ZM96.2975 0H141.681C143.359 0 144.952 0.335552 146.462 1.00666C147.972 1.62184 149.314 2.48868 150.489 3.60719C151.664 4.72571 152.614 6.01197 153.341 7.46602C154.069 8.92013 154.488 10.4301 154.599 11.996H83.5462C83.6024 10.3182 83.9659 8.75233 84.6366 7.29829C85.3641 5.84424 86.2865 4.58589 87.4049 3.5233C88.5796 2.40479 89.9216 1.53795 91.4316 0.922773C92.9416 0.307594 94.5634 0 96.2975 0ZM163.174 11.996V0H219.967C221.7 0 223.378 0.307594 225 0.922773C226.678 1.48203 228.188 2.29295 229.53 3.35553C230.872 4.41811 231.963 5.70441 232.802 7.21436C233.641 8.66846 234.116 10.2623 234.228 11.996H163.174ZM261.174 0V11.996H242.803V0H261.174ZM269.755 0H339.801V8.30495L334.517 11.996H269.755V0ZM361.069 0H406.453C408.13 0 409.724 0.335552 411.234 1.00666C412.744 1.62184 414.087 2.48868 415.261 3.60719C416.435 4.72571 417.386 6.01197 418.113 7.46602C418.84 8.92013 419.26 10.4301 419.372 11.996H348.318C348.374 10.3182 348.738 8.75233 349.409 7.29829C350.136 5.84424 351.059 4.58589 352.177 3.5233C353.351 2.40479 354.694 1.53795 356.204 0.922773C357.714 0.307594 359.336 0 361.069 0ZM427.947 11.996V0H486.417C488.038 0 489.605 0.307594 491.115 0.922773C492.625 1.53795 493.967 2.40479 495.141 3.5233C496.315 4.58589 497.238 5.84424 497.909 7.29829C498.637 8.75233 499 10.3182 499 11.996H427.947Z" fill="#3A4F64"/>
<g filter="url(#filter0_d_35_82)">
<path d="M74.9695 83H56.7657V65.4689H22.2876V83H4V54H74.9695V83ZM136.228 71.2853V54H154.599V70.63C154.599 72.3776 154.236 74.016 153.509 75.5452C152.838 77.0198 151.915 78.3032 150.741 79.3955C149.566 80.4878 148.196 81.3616 146.63 82.0169C145.064 82.6723 143.414 83 141.681 83H96.2975C94.5078 83 92.8298 82.6723 91.2642 82.0169C89.7542 81.3616 88.4116 80.4878 87.2375 79.3955C86.1191 78.3032 85.2242 77.0198 84.5529 75.5452C83.8816 74.016 83.5462 72.3776 83.5462 70.63V54H101.834V71.2853H136.228ZM191.277 54H234.228C234.172 55.6384 233.697 57.1949 232.802 58.6695C231.963 60.1441 230.844 61.4548 229.446 62.6017C228.104 63.6939 226.594 64.5678 224.916 65.2232C223.294 65.8785 221.7 66.2062 220.135 66.2062L233.473 83H213.843L191.277 54ZM181.462 83H163.174V54H181.462V83ZM261.174 83H242.803V54H261.174V83ZM269.755 83V74.8898L300.122 54H325.205L300.122 71.2853H339.801V83H269.755ZM401 71.2853V54H419.372V70.63C419.372 72.3776 419.008 74.016 418.281 75.5452C417.61 77.0198 416.687 78.3032 415.513 79.3955C414.338 80.4878 412.968 81.3616 411.402 82.0169C409.837 82.6723 408.187 83 406.453 83H361.069C359.28 83 357.602 82.6723 356.036 82.0169C354.526 81.3616 353.184 80.4878 352.009 79.3955C350.891 78.3032 349.996 77.0198 349.325 75.5452C348.654 74.016 348.318 72.3776 348.318 70.63V54H366.606V71.2853H401ZM446.234 83H427.947V54H446.234V83ZM499 83H480.796V54H499V83Z" fill="#3A4F64"/>
</g>
<defs>
<filter id="filter0_d_35_82" x="0" y="54" width="503" height="37" filterUnits="userSpaceOnUse" color-interpolation-filters="sRGB">
<feFlood flood-opacity="0" result="BackgroundImageFix"/>
<feColorMatrix in="SourceAlpha" type="matrix" values="0 0 0 0 0 0 0 0 0 0 0 0 0 0 0 0 0 0 127 0" result="hardAlpha"/>
<feOffset dy="4"/>
<feGaussianBlur stdDeviation="2"/>
<feComposite in2="hardAlpha" operator="out"/>
<feColorMatrix type="matrix" values="0 0 0 0 0 0 0 0 0 0 0 0 0 0 0 0 0 0 0.25 0"/>
<feBlend mode="normal" in2="BackgroundImageFix" result="effect1_dropShadow_35_82"/>
<feBlend mode="normal" in="SourceGraphic" in2="effect1_dropShadow_35_82" result="shape"/>
</filter>
</defs>
</svg>
